<svg id="Layer_1" data-name="Layer 1" xmlns="http://www.w3.org/2000/svg" viewBox="0 0 16 16"><defs><style>.cls-1{fill:#620087;}.cls-2{fill:#ffc300;}.cls-3{fill:#fff;}</style></defs><rect class="cls-1" width="16" height="16"/><circle class="cls-2" cx="12.58" cy="11.18" r="1.01"/><path class="cls-3" d="M9.59,7.21h.79c.23,0,.38,0,.43-.35l.13-.76a.13.13,0,0,0-.13-.17H9.59a.16.16,0,0,1-.16-.16V4.17c0-.11,0-.19-.12-.16l-1,.3a.47.47,0,0,0-.4.46v1a.16.16,0,0,1-.16.16H4.62c-1.32,0-2.31.68-2.31,1.84s1,1.63,2.11,2c.69.19,1.13.34,1.13.68s-.23.51-.75.51a3.78,3.78,0,0,1-1.91-.57.21.21,0,0,0-.29.07l-.44.7a.2.2,0,0,0,.06.29,4.69,4.69,0,0,0,2.55.75c1.38,0,2.39-.64,2.39-1.91s-1-1.58-2.1-1.91c-.7-.2-1.17-.36-1.17-.69s.19-.47.7-.47l2.08,0H7.75a.17.17,0,0,1,.13.17v2.8c0,1.41.6,1.92,1.76,1.92a2.41,2.41,0,0,0,.87-.14c.3-.11.31-.14.31-.43v-.7a.16.16,0,0,0-.2-.15,2,2,0,0,1-.52.07.6.6,0,0,1-.67-.68V7.38A.17.17,0,0,1,9.59,7.21Z"/></svg>